<mxfile host="65bd71144e">
    <diagram id="R2lEEEUBdFMjLlhIrx00" name="Page-1">
        <mxGraphModel dx="1211" dy="788" grid="0" gridSize="10" guides="1" tooltips="1" connect="1" arrows="0" fold="1" page="1" pageScale="1" pageWidth="1169" pageHeight="827" math="0" shadow="0" extFonts="Permanent Marker^https://fonts.googleapis.com/css?family=Permanent+Marker">
            <root>
                <mxCell id="0"/>
                <mxCell id="1" parent="0"/>
                <mxCell id="-JPUo0-ZmxXkv4KaRfed-3" value="Location" style="swimlane;childLayout=stackLayout;horizontal=1;startSize=50;horizontalStack=0;rounded=1;fontSize=14;fontStyle=0;strokeWidth=2;resizeParent=0;resizeLast=1;shadow=0;dashed=0;align=center;arcSize=4;whiteSpace=wrap;html=1;fillColor=#1ba1e2;strokeColor=#006EAF;fontColor=#ffffff;" parent="1" vertex="1">
                    <mxGeometry x="41" y="110" width="170" height="120" as="geometry">
                        <mxRectangle x="180" y="170" width="110" height="50" as="alternateBounds"/>
                    </mxGeometry>
                </mxCell>
                <mxCell id="-JPUo0-ZmxXkv4KaRfed-4" value="# LocationCode&lt;br&gt;&lt;div&gt;&lt;span style=&quot;background-color: initial;&quot;&gt;* StreetAddress&lt;/span&gt;&lt;/div&gt;&lt;div&gt;&lt;span style=&quot;background-color: initial;&quot;&gt;* City&lt;/span&gt;&lt;/div&gt;&lt;div&gt;&lt;span style=&quot;background-color: initial;&quot;&gt;* ZipCode&lt;/span&gt;&lt;/div&gt;&lt;div&gt;&lt;br&gt;&lt;/div&gt;" style="align=left;strokeColor=none;fillColor=none;spacingLeft=4;fontSize=12;verticalAlign=top;resizable=0;rotatable=0;part=1;html=1;" parent="-JPUo0-ZmxXkv4KaRfed-3" vertex="1">
                    <mxGeometry y="50" width="170" height="70" as="geometry"/>
                </mxCell>
                <mxCell id="-JPUo0-ZmxXkv4KaRfed-24" value="Project" style="swimlane;childLayout=stackLayout;horizontal=1;startSize=50;horizontalStack=0;rounded=1;fontSize=14;fontStyle=0;strokeWidth=2;resizeParent=0;resizeLast=1;shadow=0;dashed=0;align=center;arcSize=4;whiteSpace=wrap;html=1;fillColor=#1ba1e2;strokeColor=#006EAF;fontColor=#ffffff;" parent="1" vertex="1">
                    <mxGeometry x="153" y="327" width="170" height="124" as="geometry"/>
                </mxCell>
                <mxCell id="-JPUo0-ZmxXkv4KaRfed-25" value="&lt;div&gt;# ProjectNumber&lt;/div&gt;&lt;div&gt;* ProjectName&lt;/div&gt;&lt;div&gt;* StartDate&lt;/div&gt;&lt;div&gt;EndDate&lt;/div&gt;&lt;div&gt;&lt;br&gt;&lt;/div&gt;&lt;div&gt;&lt;br&gt;&lt;/div&gt;" style="align=left;strokeColor=none;fillColor=none;spacingLeft=4;fontSize=12;verticalAlign=top;resizable=0;rotatable=0;part=1;html=1;" parent="-JPUo0-ZmxXkv4KaRfed-24" vertex="1">
                    <mxGeometry y="50" width="170" height="74" as="geometry"/>
                </mxCell>
                <mxCell id="-JPUo0-ZmxXkv4KaRfed-26" value="Employee" style="swimlane;childLayout=stackLayout;horizontal=1;startSize=50;horizontalStack=0;rounded=1;fontSize=14;fontStyle=0;strokeWidth=2;resizeParent=0;resizeLast=1;shadow=0;dashed=0;align=center;arcSize=4;whiteSpace=wrap;html=1;fillColor=#1ba1e2;strokeColor=#006EAF;fontColor=#ffffff;" parent="1" vertex="1">
                    <mxGeometry x="705" y="112" width="170" height="252" as="geometry"/>
                </mxCell>
                <mxCell id="-JPUo0-ZmxXkv4KaRfed-27" value="&lt;div&gt;# EmployeeID&lt;/div&gt;&lt;div&gt;Supervisor&lt;/div&gt;&lt;div&gt;* JobTitle&lt;/div&gt;&lt;div&gt;* FirstName&lt;/div&gt;&lt;div&gt;* LastName&lt;/div&gt;&lt;div&gt;* NationalInsuranceNumber&lt;/div&gt;&lt;div&gt;* StreetAddress&lt;/div&gt;&lt;div&gt;* Salary&lt;/div&gt;&lt;div&gt;* DateOfBirth&lt;/div&gt;&lt;div&gt;* Email&lt;/div&gt;&lt;div&gt;* PhoneNumber&lt;/div&gt;&lt;div&gt;* StartDate&lt;/div&gt;&lt;div&gt;&lt;span style=&quot;background-color: initial;&quot;&gt;LeavingDate&lt;/span&gt;&lt;/div&gt;" style="align=left;strokeColor=none;fillColor=none;spacingLeft=4;fontSize=12;verticalAlign=top;resizable=0;rotatable=0;part=1;html=1;" parent="-JPUo0-ZmxXkv4KaRfed-26" vertex="1">
                    <mxGeometry y="50" width="170" height="202" as="geometry"/>
                </mxCell>
                <mxCell id="19" value="" style="edgeStyle=elbowEdgeStyle;fontSize=12;html=1;endArrow=ERoneToMany;startArrow=ERzeroToOne;fontColor=#FFFFFF;exitX=1.01;exitY=0.877;exitDx=0;exitDy=0;elbow=vertical;exitPerimeter=0;entryX=1;entryY=0.5;entryDx=0;entryDy=0;" parent="-JPUo0-ZmxXkv4KaRfed-26" source="-JPUo0-ZmxXkv4KaRfed-27" target="-JPUo0-ZmxXkv4KaRfed-27" edge="1">
                    <mxGeometry width="100" height="100" relative="1" as="geometry">
                        <mxPoint x="180" y="191" as="sourcePoint"/>
                        <mxPoint x="220" y="136.5" as="targetPoint"/>
                        <Array as="points">
                            <mxPoint x="190" y="179"/>
                            <mxPoint x="211" y="107"/>
                            <mxPoint x="208" y="119"/>
                        </Array>
                    </mxGeometry>
                </mxCell>
                <mxCell id="-JPUo0-ZmxXkv4KaRfed-28" value="Dependent" style="swimlane;childLayout=stackLayout;horizontal=1;startSize=50;horizontalStack=0;rounded=1;fontSize=14;fontStyle=0;strokeWidth=2;resizeParent=0;resizeLast=1;shadow=0;dashed=0;align=center;arcSize=4;whiteSpace=wrap;html=1;fillColor=#1ba1e2;strokeColor=#006EAF;fontColor=#ffffff;" parent="1" vertex="1">
                    <mxGeometry x="705" y="431" width="170" height="128" as="geometry"/>
                </mxCell>
                <mxCell id="-JPUo0-ZmxXkv4KaRfed-29" value="&lt;div&gt;# DependentID&lt;/div&gt;&lt;div&gt;* FirstName&lt;/div&gt;&lt;div&gt;* BirthDate&lt;/div&gt;&lt;div&gt;* Relationship&lt;/div&gt;" style="align=left;strokeColor=none;fillColor=none;spacingLeft=4;fontSize=12;verticalAlign=top;resizable=0;rotatable=0;part=1;html=1;" parent="-JPUo0-ZmxXkv4KaRfed-28" vertex="1">
                    <mxGeometry y="50" width="170" height="78" as="geometry"/>
                </mxCell>
                <mxCell id="-JPUo0-ZmxXkv4KaRfed-30" value="Customer" style="swimlane;childLayout=stackLayout;horizontal=1;startSize=50;horizontalStack=0;rounded=1;fontSize=14;fontStyle=0;strokeWidth=2;resizeParent=0;resizeLast=1;shadow=0;dashed=0;align=center;arcSize=4;whiteSpace=wrap;html=1;fillColor=#1ba1e2;strokeColor=#006EAF;fontColor=#ffffff;" parent="1" vertex="1">
                    <mxGeometry x="959" y="110" width="170" height="123" as="geometry"/>
                </mxCell>
                <mxCell id="-JPUo0-ZmxXkv4KaRfed-31" value="&lt;div&gt;# CustomerID&lt;/div&gt;&lt;div&gt;* CustomerName&lt;/div&gt;&lt;div&gt;* CustomerEmail&lt;/div&gt;&lt;div&gt;* CustomerPhone&lt;/div&gt;" style="align=left;strokeColor=none;fillColor=none;spacingLeft=4;fontSize=12;verticalAlign=top;resizable=0;rotatable=0;part=1;html=1;" parent="-JPUo0-ZmxXkv4KaRfed-30" vertex="1">
                    <mxGeometry y="50" width="170" height="73" as="geometry"/>
                </mxCell>
                <mxCell id="-JPUo0-ZmxXkv4KaRfed-32" value="Product" style="swimlane;childLayout=stackLayout;horizontal=1;startSize=50;horizontalStack=0;rounded=1;fontSize=14;fontStyle=0;strokeWidth=2;resizeParent=0;resizeLast=1;shadow=0;dashed=0;align=center;arcSize=4;whiteSpace=wrap;html=1;fillColor=#1ba1e2;strokeColor=#006EAF;fontColor=#ffffff;" parent="1" vertex="1">
                    <mxGeometry x="959" y="659.5" width="170" height="120.5" as="geometry"/>
                </mxCell>
                <mxCell id="-JPUo0-ZmxXkv4KaRfed-33" value="# ProductID&lt;div&gt;* ProductName&lt;/div&gt;&lt;div&gt;* ProductWeight&lt;/div&gt;&lt;div&gt;* ProductPrice&lt;/div&gt;" style="align=left;strokeColor=none;fillColor=none;spacingLeft=4;fontSize=12;verticalAlign=top;resizable=0;rotatable=0;part=1;html=1;" parent="-JPUo0-ZmxXkv4KaRfed-32" vertex="1">
                    <mxGeometry y="50" width="170" height="70.5" as="geometry"/>
                </mxCell>
                <mxCell id="-JPUo0-ZmxXkv4KaRfed-34" value="SalesOrder" style="swimlane;childLayout=stackLayout;horizontal=1;startSize=50;horizontalStack=0;rounded=1;fontSize=14;fontStyle=0;strokeWidth=2;resizeParent=0;resizeLast=1;shadow=0;dashed=0;align=center;arcSize=4;whiteSpace=wrap;html=1;fillColor=#1ba1e2;strokeColor=#006EAF;fontColor=#ffffff;" parent="1" vertex="1">
                    <mxGeometry x="959" y="293.5" width="170" height="106.5" as="geometry"/>
                </mxCell>
                <mxCell id="-JPUo0-ZmxXkv4KaRfed-35" value="&lt;div&gt;# OrderNumber&lt;/div&gt;&lt;div&gt;* Customer&lt;/div&gt;&lt;div&gt;* TotalPrice&lt;/div&gt;" style="align=left;strokeColor=none;fillColor=none;spacingLeft=4;fontSize=12;verticalAlign=top;resizable=0;rotatable=0;part=1;html=1;" parent="-JPUo0-ZmxXkv4KaRfed-34" vertex="1">
                    <mxGeometry y="50" width="170" height="56.5" as="geometry"/>
                </mxCell>
                <mxCell id="-JPUo0-ZmxXkv4KaRfed-36" value="Warehouse" style="swimlane;childLayout=stackLayout;horizontal=1;startSize=50;horizontalStack=0;rounded=1;fontSize=14;fontStyle=0;strokeWidth=2;resizeParent=0;resizeLast=1;shadow=0;dashed=0;align=center;arcSize=4;whiteSpace=wrap;html=1;fillColor=#1ba1e2;strokeColor=#006EAF;fontColor=#ffffff;" parent="1" vertex="1">
                    <mxGeometry x="403" y="663.5" width="160" height="120.5" as="geometry">
                        <mxRectangle x="180" y="170" width="110" height="50" as="alternateBounds"/>
                    </mxGeometry>
                </mxCell>
                <mxCell id="-JPUo0-ZmxXkv4KaRfed-37" value="&lt;div&gt;# WarehouseID&lt;/div&gt;&lt;div&gt;* Location&lt;/div&gt;" style="align=left;strokeColor=none;fillColor=none;spacingLeft=4;fontSize=12;verticalAlign=top;resizable=0;rotatable=0;part=1;html=1;" parent="-JPUo0-ZmxXkv4KaRfed-36" vertex="1">
                    <mxGeometry y="50" width="160" height="70.5" as="geometry"/>
                </mxCell>
                <mxCell id="-JPUo0-ZmxXkv4KaRfed-38" value="Department" style="swimlane;childLayout=stackLayout;horizontal=1;startSize=50;horizontalStack=0;rounded=1;fontSize=14;fontStyle=0;strokeWidth=2;resizeParent=0;resizeLast=1;shadow=0;dashed=0;align=center;arcSize=4;whiteSpace=wrap;html=1;fillColor=#1ba1e2;strokeColor=#006EAF;labelBackgroundColor=none;labelBorderColor=none;fontColor=#ffffff;" parent="1" vertex="1">
                    <mxGeometry x="468" y="100" width="170" height="124" as="geometry">
                        <mxRectangle x="180" y="170" width="110" height="50" as="alternateBounds"/>
                    </mxGeometry>
                </mxCell>
                <mxCell id="-JPUo0-ZmxXkv4KaRfed-39" value="&lt;div&gt;# DepartmentNumber&lt;/div&gt;&lt;div&gt;* DepartmentName&lt;/div&gt;&lt;div&gt;&lt;br&gt;&lt;/div&gt;&lt;div&gt;&lt;br&gt;&lt;/div&gt;" style="align=left;strokeColor=none;fillColor=none;spacingLeft=4;fontSize=12;verticalAlign=top;resizable=0;rotatable=0;part=1;html=1;" parent="-JPUo0-ZmxXkv4KaRfed-38" vertex="1">
                    <mxGeometry y="50" width="170" height="74" as="geometry"/>
                </mxCell>
                <mxCell id="-JPUo0-ZmxXkv4KaRfed-45" value="&lt;font style=&quot;font-size: 14px;&quot;&gt;EmployeeTransfer&lt;/font&gt;" style="swimlane;childLayout=stackLayout;horizontal=1;startSize=50;horizontalStack=0;rounded=1;fontSize=14;fontStyle=0;strokeWidth=2;resizeParent=0;resizeLast=1;shadow=0;dashed=0;align=center;arcSize=4;whiteSpace=wrap;html=1;fillColor=#1ba1e2;strokeColor=#006EAF;fontColor=#ffffff;" parent="1" vertex="1">
                    <mxGeometry x="395" y="304" width="170" height="97.5" as="geometry"/>
                </mxCell>
                <mxCell id="-JPUo0-ZmxXkv4KaRfed-46" value="&lt;div style=&quot;&quot;&gt;&lt;div&gt;# TransferID&lt;/div&gt;&lt;div&gt;* TransferDate&lt;/div&gt;&lt;div&gt;&lt;br&gt;&lt;/div&gt;&lt;/div&gt;" style="align=left;strokeColor=none;fillColor=none;spacingLeft=4;fontSize=12;verticalAlign=top;resizable=0;rotatable=0;part=1;html=1;" parent="-JPUo0-ZmxXkv4KaRfed-45" vertex="1">
                    <mxGeometry y="50" width="170" height="47.5" as="geometry"/>
                </mxCell>
                <mxCell id="-JPUo0-ZmxXkv4KaRfed-57" value="Assignment" style="swimlane;childLayout=stackLayout;horizontal=1;startSize=50;horizontalStack=0;rounded=1;fontSize=14;fontStyle=0;strokeWidth=2;resizeParent=0;resizeLast=1;shadow=0;dashed=0;align=center;arcSize=4;whiteSpace=wrap;html=1;fillColor=#1ba1e2;strokeColor=#006EAF;fontColor=#ffffff;" parent="1" vertex="1">
                    <mxGeometry x="395" y="433.5" width="170" height="151.5" as="geometry"/>
                </mxCell>
                <mxCell id="-JPUo0-ZmxXkv4KaRfed-58" value="&lt;div&gt;# AssignmentID&lt;/div&gt;&lt;div&gt;* Employee&lt;/div&gt;&lt;div&gt;* Project&lt;/div&gt;&lt;div&gt;* HoursPerWeek&lt;/div&gt;&lt;div&gt;* AssignmentStart&lt;/div&gt;&lt;div&gt;AssignmentEnd&lt;/div&gt;" style="align=left;strokeColor=none;fillColor=none;spacingLeft=4;fontSize=12;verticalAlign=top;resizable=0;rotatable=0;part=1;html=1;" parent="-JPUo0-ZmxXkv4KaRfed-57" vertex="1">
                    <mxGeometry y="50" width="170" height="101.5" as="geometry"/>
                </mxCell>
                <mxCell id="-JPUo0-ZmxXkv4KaRfed-63" value="Inventory" style="swimlane;childLayout=stackLayout;horizontal=1;startSize=50;horizontalStack=0;rounded=1;fontSize=14;fontStyle=0;strokeWidth=2;resizeParent=0;resizeLast=1;shadow=0;dashed=0;align=center;arcSize=4;whiteSpace=wrap;html=1;fillColor=#1ba1e2;strokeColor=#006EAF;fontColor=#ffffff;" parent="1" vertex="1">
                    <mxGeometry x="682" y="663.5" width="170" height="120.5" as="geometry"/>
                </mxCell>
                <mxCell id="-JPUo0-ZmxXkv4KaRfed-64" value="&lt;div&gt;# InventoryID&lt;/div&gt;&lt;div&gt;* Warehouse&lt;br&gt;&lt;/div&gt;&lt;div&gt;* Product&lt;/div&gt;&lt;div&gt;* Quantity&lt;/div&gt;" style="align=left;strokeColor=none;fillColor=none;spacingLeft=4;fontSize=12;verticalAlign=top;resizable=0;rotatable=0;part=1;html=1;" parent="-JPUo0-ZmxXkv4KaRfed-63" vertex="1">
                    <mxGeometry y="50" width="170" height="70.5" as="geometry"/>
                </mxCell>
                <mxCell id="3" value="OrderDetail" style="swimlane;childLayout=stackLayout;horizontal=1;startSize=50;horizontalStack=0;rounded=1;fontSize=14;fontStyle=0;strokeWidth=2;resizeParent=0;resizeLast=1;shadow=0;dashed=0;align=center;arcSize=4;whiteSpace=wrap;html=1;fillColor=#1ba1e2;strokeColor=#006EAF;fontColor=#ffffff;" parent="1" vertex="1">
                    <mxGeometry x="959" y="472" width="170" height="119.5" as="geometry"/>
                </mxCell>
                <mxCell id="4" value="&lt;div&gt;# OrderNumber&lt;/div&gt;&lt;div&gt;# ProductID&lt;/div&gt;&lt;div&gt;* Quantity&lt;/div&gt;&lt;div&gt;* Subtotal&lt;/div&gt;" style="align=left;strokeColor=none;fillColor=none;spacingLeft=4;fontSize=12;verticalAlign=top;resizable=0;rotatable=0;part=1;html=1;" parent="3" vertex="1">
                    <mxGeometry y="50" width="170" height="69.5" as="geometry"/>
                </mxCell>
                <mxCell id="5" value="ProductTransfer" style="swimlane;childLayout=stackLayout;horizontal=1;startSize=50;horizontalStack=0;rounded=1;fontSize=14;fontStyle=0;strokeWidth=2;resizeParent=0;resizeLast=1;shadow=0;dashed=0;align=center;arcSize=4;whiteSpace=wrap;html=1;fillColor=#1ba1e2;strokeColor=#006EAF;fontColor=#ffffff;" parent="1" vertex="1">
                    <mxGeometry x="153" y="530" width="170" height="155" as="geometry"/>
                </mxCell>
                <mxCell id="6" value="&lt;div&gt;# TransferID&lt;/div&gt;&lt;div&gt;* FromWarehouse&lt;/div&gt;&lt;div&gt;* ToWarehouse&lt;/div&gt;&lt;div&gt;* Quantity&lt;/div&gt;&lt;div&gt;* TransferDate&lt;/div&gt;&lt;div&gt;&lt;br&gt;&lt;/div&gt;" style="align=left;strokeColor=none;fillColor=none;spacingLeft=4;fontSize=12;verticalAlign=top;resizable=0;rotatable=0;part=1;html=1;" parent="5" vertex="1">
                    <mxGeometry y="50" width="170" height="105" as="geometry"/>
                </mxCell>
                <mxCell id="9" value="Hires" style="text;html=1;align=center;verticalAlign=middle;whiteSpace=wrap;rounded=0;labelBackgroundColor=none;labelBorderColor=none;fontSize=10;" parent="1" vertex="1">
                    <mxGeometry x="622.5" y="140" width="60" height="30" as="geometry"/>
                </mxCell>
                <mxCell id="10" value="" style="edgeStyle=entityRelationEdgeStyle;fontSize=12;html=1;endArrow=ERoneToMany;startArrow=ERmandOne;fontColor=#000000;exitX=1;exitY=0.25;exitDx=0;exitDy=0;entryX=0;entryY=0.25;entryDx=0;entryDy=0;" parent="1" source="-JPUo0-ZmxXkv4KaRfed-39" target="-JPUo0-ZmxXkv4KaRfed-27" edge="1">
                    <mxGeometry width="100" height="100" relative="1" as="geometry">
                        <mxPoint x="597" y="273.5" as="sourcePoint"/>
                        <mxPoint x="497" y="273" as="targetPoint"/>
                    </mxGeometry>
                </mxCell>
                <mxCell id="11" value="Hired by" style="text;html=1;align=center;verticalAlign=middle;whiteSpace=wrap;rounded=0;labelBackgroundColor=none;labelBorderColor=none;fontSize=10;" parent="1" vertex="1">
                    <mxGeometry x="652" y="209" width="60" height="30" as="geometry"/>
                </mxCell>
                <mxCell id="14" value="" style="edgeStyle=elbowEdgeStyle;fontSize=12;html=1;endArrow=ERoneToMany;startArrow=ERmandOne;fontColor=#000000;exitX=0.25;exitY=1;exitDx=0;exitDy=0;entryX=0.5;entryY=0;entryDx=0;entryDy=0;elbow=vertical;" parent="1" source="-JPUo0-ZmxXkv4KaRfed-39" target="-JPUo0-ZmxXkv4KaRfed-24" edge="1">
                    <mxGeometry width="100" height="100" relative="1" as="geometry">
                        <mxPoint x="436" y="257" as="sourcePoint"/>
                        <mxPoint x="336" y="256.5" as="targetPoint"/>
                    </mxGeometry>
                </mxCell>
                <mxCell id="15" value="" style="fontSize=12;html=1;endArrow=ERzeroToMany;startArrow=ERmandOne;fontColor=#FFFFFF;exitX=0.5;exitY=1;exitDx=0;exitDy=0;entryX=0.5;entryY=0;entryDx=0;entryDy=0;" parent="1" source="-JPUo0-ZmxXkv4KaRfed-27" target="-JPUo0-ZmxXkv4KaRfed-28" edge="1">
                    <mxGeometry width="100" height="100" relative="1" as="geometry">
                        <mxPoint x="448" y="417" as="sourcePoint"/>
                        <mxPoint x="788" y="414" as="targetPoint"/>
                    </mxGeometry>
                </mxCell>
                <mxCell id="17" value="Supports" style="text;html=1;align=center;verticalAlign=middle;whiteSpace=wrap;rounded=0;labelBackgroundColor=none;labelBorderColor=none;fontSize=10;" parent="1" vertex="1">
                    <mxGeometry x="732" y="359" width="60" height="30" as="geometry"/>
                </mxCell>
                <mxCell id="18" value="Supported by" style="text;html=1;align=center;verticalAlign=middle;whiteSpace=wrap;rounded=0;labelBackgroundColor=none;labelBorderColor=none;fontSize=10;" parent="1" vertex="1">
                    <mxGeometry x="792" y="403.5" width="71" height="30" as="geometry"/>
                </mxCell>
                <mxCell id="20" value="Supervises" style="text;html=1;align=center;verticalAlign=middle;whiteSpace=wrap;rounded=0;labelBackgroundColor=none;labelBorderColor=none;fontSize=10;" parent="1" vertex="1">
                    <mxGeometry x="875" y="338.5" width="60" height="30" as="geometry"/>
                </mxCell>
                <mxCell id="21" value="Supervided by" style="text;html=1;align=center;verticalAlign=middle;whiteSpace=wrap;rounded=0;labelBackgroundColor=none;labelBorderColor=none;fontSize=10;rotation=0;" parent="1" vertex="1">
                    <mxGeometry x="875" y="236" width="63" height="30" as="geometry"/>
                </mxCell>
                <mxCell id="23" value="" style="fontSize=12;html=1;endArrow=ERzeroToMany;startArrow=ERmandOne;fontColor=#FFFFFF;exitX=0.5;exitY=1;exitDx=0;exitDy=0;entryX=0.75;entryY=0;entryDx=0;entryDy=0;edgeStyle=elbowEdgeStyle;elbow=vertical;" parent="1" source="-JPUo0-ZmxXkv4KaRfed-39" target="-JPUo0-ZmxXkv4KaRfed-45" edge="1">
                    <mxGeometry width="100" height="100" relative="1" as="geometry">
                        <mxPoint x="365" y="272.5" as="sourcePoint"/>
                        <mxPoint x="365" y="333.5" as="targetPoint"/>
                    </mxGeometry>
                </mxCell>
                <mxCell id="27" value="Controls" style="text;html=1;align=center;verticalAlign=middle;whiteSpace=wrap;rounded=0;labelBackgroundColor=none;labelBorderColor=none;fontSize=10;" parent="1" vertex="1">
                    <mxGeometry x="457" y="224" width="60" height="30" as="geometry"/>
                </mxCell>
                <mxCell id="28" value="Controled by" style="text;html=1;align=center;verticalAlign=middle;whiteSpace=wrap;rounded=0;labelBackgroundColor=none;labelBorderColor=none;fontSize=10;" parent="1" vertex="1">
                    <mxGeometry x="241" y="270" width="60" height="30" as="geometry"/>
                </mxCell>
                <mxCell id="30" value="" style="fontSize=12;html=1;endArrow=ERzeroToMany;startArrow=none;fontColor=#FFFFFF;exitX=-0.008;exitY=0.56;exitDx=0;exitDy=0;entryX=1;entryY=0.25;entryDx=0;entryDy=0;edgeStyle=elbowEdgeStyle;exitPerimeter=0;" parent="1" source="80" target="-JPUo0-ZmxXkv4KaRfed-45" edge="1">
                    <mxGeometry width="100" height="100" relative="1" as="geometry">
                        <mxPoint x="490" y="264" as="sourcePoint"/>
                        <mxPoint x="490" y="302.5" as="targetPoint"/>
                    </mxGeometry>
                </mxCell>
                <mxCell id="34" value="" style="edgeStyle=orthogonalEdgeStyle;fontSize=12;html=1;endArrow=none;startArrow=ERmandOne;fontColor=#000000;exitX=0;exitY=0.75;exitDx=0;exitDy=0;entryX=0.5;entryY=0;entryDx=0;entryDy=0;" parent="1" source="-JPUo0-ZmxXkv4KaRfed-27" target="32" edge="1">
                    <mxGeometry width="100" height="100" relative="1" as="geometry">
                        <mxPoint x="703" y="308.5" as="sourcePoint"/>
                        <mxPoint x="620" y="501.5" as="targetPoint"/>
                    </mxGeometry>
                </mxCell>
                <mxCell id="32" value="Assigned to" style="text;html=1;align=center;verticalAlign=middle;whiteSpace=wrap;rounded=0;labelBackgroundColor=none;labelBorderColor=none;fontSize=10;" parent="1" vertex="1">
                    <mxGeometry x="634" y="384" width="60" height="30" as="geometry"/>
                </mxCell>
                <mxCell id="36" value="" style="edgeStyle=elbowEdgeStyle;fontSize=12;html=1;endArrow=none;startArrow=ERmandOne;fontColor=#000000;exitX=1;exitY=0.5;exitDx=0;exitDy=0;entryX=0.5;entryY=0;entryDx=0;entryDy=0;" parent="1" source="-JPUo0-ZmxXkv4KaRfed-25" target="35" edge="1">
                    <mxGeometry width="100" height="100" relative="1" as="geometry">
                        <mxPoint x="323" y="374.5" as="sourcePoint"/>
                        <mxPoint x="395" y="499.5" as="targetPoint"/>
                        <Array as="points">
                            <mxPoint x="350" y="398.5"/>
                        </Array>
                    </mxGeometry>
                </mxCell>
                <mxCell id="35" value="Assigned to" style="text;html=1;align=center;verticalAlign=middle;whiteSpace=wrap;rounded=0;labelBackgroundColor=none;labelBorderColor=none;fontSize=10;" parent="1" vertex="1">
                    <mxGeometry x="319" y="449" width="60" height="30" as="geometry"/>
                </mxCell>
                <mxCell id="38" value="" style="fontSize=12;html=1;endArrow=ERoneToMany;startArrow=ERmandOne;fontColor=#000000;entryX=0.5;entryY=0;entryDx=0;entryDy=0;exitX=0.5;exitY=1;exitDx=0;exitDy=0;" parent="1" source="-JPUo0-ZmxXkv4KaRfed-31" target="-JPUo0-ZmxXkv4KaRfed-34" edge="1">
                    <mxGeometry width="100" height="100" relative="1" as="geometry">
                        <mxPoint x="1104" y="253.5" as="sourcePoint"/>
                        <mxPoint x="1120" y="255" as="targetPoint"/>
                    </mxGeometry>
                </mxCell>
                <mxCell id="39" value="" style="fontSize=12;html=1;endArrow=ERoneToMany;startArrow=ERmandOne;fontColor=#000000;entryX=0.5;entryY=0;entryDx=0;entryDy=0;exitX=0.5;exitY=1;exitDx=0;exitDy=0;" parent="1" source="-JPUo0-ZmxXkv4KaRfed-35" target="3" edge="1">
                    <mxGeometry width="100" height="100" relative="1" as="geometry">
                        <mxPoint x="1054" y="240" as="sourcePoint"/>
                        <mxPoint x="1054" y="303.5" as="targetPoint"/>
                    </mxGeometry>
                </mxCell>
                <mxCell id="40" value="" style="fontSize=12;html=1;endArrow=ERzeroToMany;startArrow=ERmandOne;fontColor=#FFFFFF;exitX=0.5;exitY=0;exitDx=0;exitDy=0;entryX=0.5;entryY=1;entryDx=0;entryDy=0;elbow=vertical;" parent="1" source="-JPUo0-ZmxXkv4KaRfed-32" target="4" edge="1">
                    <mxGeometry width="100" height="100" relative="1" as="geometry">
                        <mxPoint x="1282.14" y="622.5" as="sourcePoint"/>
                        <mxPoint x="1158" y="644.6" as="targetPoint"/>
                    </mxGeometry>
                </mxCell>
                <mxCell id="41" value="" style="fontSize=12;html=1;endArrow=ERzeroToMany;startArrow=ERmandOne;fontColor=#FFFFFF;entryX=0;entryY=0.25;entryDx=0;entryDy=0;exitX=1;exitY=0;exitDx=0;exitDy=0;edgeStyle=elbowEdgeStyle;" parent="1" source="-JPUo0-ZmxXkv4KaRfed-27" target="-JPUo0-ZmxXkv4KaRfed-31" edge="1">
                    <mxGeometry width="100" height="100" relative="1" as="geometry">
                        <mxPoint x="815" y="199.5" as="sourcePoint"/>
                        <mxPoint x="1089" y="260.1" as="targetPoint"/>
                    </mxGeometry>
                </mxCell>
                <mxCell id="42" value="" style="fontSize=12;html=1;endArrow=ERoneToMany;startArrow=none;fontColor=#000000;entryX=1;entryY=0.25;entryDx=0;entryDy=0;exitX=0;exitY=0.5;exitDx=0;exitDy=0;" parent="1" source="59" target="-JPUo0-ZmxXkv4KaRfed-64" edge="1">
                    <mxGeometry width="100" height="100" relative="1" as="geometry">
                        <mxPoint x="877" y="766.5" as="sourcePoint"/>
                        <mxPoint x="877" y="834.5" as="targetPoint"/>
                    </mxGeometry>
                </mxCell>
                <mxCell id="43" value="" style="fontSize=12;html=1;endArrow=ERoneToMany;startArrow=none;fontColor=#000000;entryX=0;entryY=0.5;entryDx=0;entryDy=0;exitX=1;exitY=0.5;exitDx=0;exitDy=0;" parent="1" source="62" target="-JPUo0-ZmxXkv4KaRfed-63" edge="1">
                    <mxGeometry width="100" height="100" relative="1" as="geometry">
                        <mxPoint x="616" y="882.5" as="sourcePoint"/>
                        <mxPoint x="529" y="816.5" as="targetPoint"/>
                    </mxGeometry>
                </mxCell>
                <mxCell id="44" value="" style="fontSize=12;html=1;endArrow=ERzeroToMany;startArrow=ERmandOne;fontColor=#FFFFFF;entryX=0;entryY=0.5;entryDx=0;entryDy=0;exitX=0.25;exitY=1;exitDx=0;exitDy=0;edgeStyle=elbowEdgeStyle;" parent="1" source="-JPUo0-ZmxXkv4KaRfed-4" target="-JPUo0-ZmxXkv4KaRfed-37" edge="1">
                    <mxGeometry width="100" height="100" relative="1" as="geometry">
                        <mxPoint x="36" y="203.5" as="sourcePoint"/>
                        <mxPoint x="123" y="191" as="targetPoint"/>
                        <Array as="points">
                            <mxPoint x="84" y="502"/>
                        </Array>
                    </mxGeometry>
                </mxCell>
                <mxCell id="45" value="Belongs to" style="text;html=1;align=center;verticalAlign=middle;whiteSpace=wrap;rounded=0;labelBackgroundColor=none;labelBorderColor=none;fontSize=10;" parent="1" vertex="1">
                    <mxGeometry x="211" y="185" width="60" height="30" as="geometry"/>
                </mxCell>
                <mxCell id="46" value="Located on" style="text;html=1;align=center;verticalAlign=middle;whiteSpace=wrap;rounded=0;labelBackgroundColor=none;labelBorderColor=none;fontSize=10;" parent="1" vertex="1">
                    <mxGeometry x="408" y="185" width="60" height="30" as="geometry"/>
                </mxCell>
                <mxCell id="47" value="Located on" style="text;html=1;align=center;verticalAlign=middle;whiteSpace=wrap;rounded=0;labelBackgroundColor=none;labelBorderColor=none;fontSize=10;" parent="1" vertex="1">
                    <mxGeometry x="340" y="722" width="60" height="30" as="geometry"/>
                </mxCell>
                <mxCell id="49" value="Has" style="text;html=1;align=center;verticalAlign=middle;whiteSpace=wrap;rounded=0;labelBackgroundColor=none;labelBorderColor=none;fontSize=10;" parent="1" vertex="1">
                    <mxGeometry x="73" y="224" width="60" height="30" as="geometry"/>
                </mxCell>
                <mxCell id="51" value="Answers" style="text;html=1;align=center;verticalAlign=middle;whiteSpace=wrap;rounded=0;labelBackgroundColor=none;labelBorderColor=none;fontSize=10;" parent="1" vertex="1">
                    <mxGeometry x="870" y="136" width="60" height="30" as="geometry"/>
                </mxCell>
                <mxCell id="52" value="Contacts" style="text;html=1;align=center;verticalAlign=middle;whiteSpace=wrap;rounded=0;labelBackgroundColor=none;labelBorderColor=none;fontSize=10;" parent="1" vertex="1">
                    <mxGeometry x="905" y="179" width="60" height="30" as="geometry"/>
                </mxCell>
                <mxCell id="53" value="Orders" style="text;html=1;align=center;verticalAlign=middle;whiteSpace=wrap;rounded=0;labelBackgroundColor=none;labelBorderColor=none;fontSize=10;" parent="1" vertex="1">
                    <mxGeometry x="1038" y="228" width="60" height="30" as="geometry"/>
                </mxCell>
                <mxCell id="54" value="Orded by" style="text;html=1;align=center;verticalAlign=middle;whiteSpace=wrap;rounded=0;labelBackgroundColor=none;labelBorderColor=none;fontSize=10;" parent="1" vertex="1">
                    <mxGeometry x="1045" y="266" width="60" height="30" as="geometry"/>
                </mxCell>
                <mxCell id="55" value="Is described on" style="text;html=1;align=center;verticalAlign=middle;whiteSpace=wrap;rounded=0;labelBackgroundColor=none;labelBorderColor=none;fontSize=10;" parent="1" vertex="1">
                    <mxGeometry x="1044" y="399" width="85" height="30" as="geometry"/>
                </mxCell>
                <mxCell id="56" value="Describes" style="text;html=1;align=center;verticalAlign=middle;whiteSpace=wrap;rounded=0;labelBackgroundColor=none;labelBorderColor=none;fontSize=10;" parent="1" vertex="1">
                    <mxGeometry x="1045" y="446" width="60" height="30" as="geometry"/>
                </mxCell>
                <mxCell id="57" value="Specifies" style="text;html=1;align=center;verticalAlign=middle;whiteSpace=wrap;rounded=0;labelBackgroundColor=none;labelBorderColor=none;fontSize=10;" parent="1" vertex="1">
                    <mxGeometry x="1044" y="588.5" width="60" height="30" as="geometry"/>
                </mxCell>
                <mxCell id="58" value="Specified on" style="text;html=1;align=center;verticalAlign=middle;whiteSpace=wrap;rounded=0;labelBackgroundColor=none;labelBorderColor=none;fontSize=10;" parent="1" vertex="1">
                    <mxGeometry x="1050" y="634" width="60" height="30" as="geometry"/>
                </mxCell>
                <mxCell id="61" value="" style="fontSize=12;html=1;endArrow=none;startArrow=ERmandOne;fontColor=#000000;entryX=1;entryY=0.5;entryDx=0;entryDy=0;exitX=0;exitY=0.75;exitDx=0;exitDy=0;edgeStyle=elbowEdgeStyle;" parent="1" source="-JPUo0-ZmxXkv4KaRfed-33" target="59" edge="1">
                    <mxGeometry width="100" height="100" relative="1" as="geometry">
                        <mxPoint x="959" y="727" as="sourcePoint"/>
                        <mxPoint x="939" y="727" as="targetPoint"/>
                    </mxGeometry>
                </mxCell>
                <mxCell id="59" value="Is stored" style="text;html=1;align=center;verticalAlign=middle;whiteSpace=wrap;rounded=0;labelBackgroundColor=none;labelBorderColor=none;fontSize=10;" parent="1" vertex="1">
                    <mxGeometry x="887" y="717" width="45" height="30" as="geometry"/>
                </mxCell>
                <mxCell id="64" value="" style="fontSize=12;html=1;endArrow=none;startArrow=ERmandOne;fontColor=#000000;entryX=0;entryY=0.5;entryDx=0;entryDy=0;exitX=1;exitY=0.5;exitDx=0;exitDy=0;edgeStyle=elbowEdgeStyle;" parent="1" source="-JPUo0-ZmxXkv4KaRfed-37" target="62" edge="1">
                    <mxGeometry width="100" height="100" relative="1" as="geometry">
                        <mxPoint x="563" y="748.75" as="sourcePoint"/>
                        <mxPoint x="650" y="723.75" as="targetPoint"/>
                    </mxGeometry>
                </mxCell>
                <mxCell id="62" value="Stores" style="text;html=1;align=center;verticalAlign=middle;whiteSpace=wrap;rounded=0;labelBackgroundColor=none;labelBorderColor=none;fontSize=10;" parent="1" vertex="1">
                    <mxGeometry x="603" y="708.75" width="39" height="30" as="geometry"/>
                </mxCell>
                <mxCell id="72" value="" style="fontSize=12;html=1;endArrow=ERoneToMany;startArrow=ERzeroToOne;fontColor=#FFFFFF;entryX=1;entryY=0.75;entryDx=0;entryDy=0;edgeStyle=elbowEdgeStyle;" parent="1" target="-JPUo0-ZmxXkv4KaRfed-4" edge="1">
                    <mxGeometry width="100" height="100" relative="1" as="geometry">
                        <mxPoint x="466" y="213" as="sourcePoint"/>
                        <mxPoint x="364" y="124" as="targetPoint"/>
                    </mxGeometry>
                </mxCell>
                <mxCell id="75" value="DepartmentManager" style="swimlane;childLayout=stackLayout;horizontal=1;startSize=50;horizontalStack=0;rounded=1;fontSize=14;fontStyle=0;strokeWidth=2;resizeParent=0;resizeLast=1;shadow=0;dashed=0;align=center;arcSize=4;whiteSpace=wrap;html=1;fillColor=#1ba1e2;strokeColor=#006EAF;fontColor=#ffffff;" parent="1" vertex="1">
                    <mxGeometry x="254" y="53" width="170" height="120" as="geometry"/>
                </mxCell>
                <mxCell id="76" value="&lt;div&gt;# ManagerID&lt;/div&gt;&lt;div&gt;&lt;div&gt;* ManagerStartDate&lt;/div&gt;&lt;div&gt;&lt;span style=&quot;background-color: initial;&quot;&gt;ManagerEndDate&lt;/span&gt;&lt;/div&gt;&lt;/div&gt;" style="align=left;strokeColor=none;fillColor=none;spacingLeft=4;fontSize=12;verticalAlign=top;resizable=0;rotatable=0;part=1;html=1;" parent="75" vertex="1">
                    <mxGeometry y="50" width="170" height="70" as="geometry"/>
                </mxCell>
                <mxCell id="81" value="" style="fontSize=12;html=1;endArrow=none;startArrow=ERmandOne;fontColor=#FFFFFF;exitX=-0.008;exitY=0.56;exitDx=0;exitDy=0;entryX=1;entryY=0.5;entryDx=0;entryDy=0;exitPerimeter=0;edgeStyle=orthogonalEdgeStyle;" parent="1" source="-JPUo0-ZmxXkv4KaRfed-27" target="80" edge="1">
                    <mxGeometry width="100" height="100" relative="1" as="geometry">
                        <mxPoint x="703.6400000000001" y="268.4000000000001" as="sourcePoint"/>
                        <mxPoint x="565" y="328.375" as="targetPoint"/>
                    </mxGeometry>
                </mxCell>
                <mxCell id="80" value="Changes" style="text;html=1;align=center;verticalAlign=middle;whiteSpace=wrap;rounded=0;labelBackgroundColor=none;labelBorderColor=none;fontSize=10;" parent="1" vertex="1">
                    <mxGeometry x="598" y="260" width="49" height="30" as="geometry"/>
                </mxCell>
                <mxCell id="82" value="Rotates" style="text;html=1;align=center;verticalAlign=middle;whiteSpace=wrap;rounded=0;labelBackgroundColor=none;labelBorderColor=none;fontSize=10;" parent="1" vertex="1">
                    <mxGeometry x="553" y="224" width="49" height="30" as="geometry"/>
                </mxCell>
                <mxCell id="83" value="" style="edgeStyle=elbowEdgeStyle;fontSize=12;html=1;endArrow=ERoneToMany;startArrow=ERmandOne;fontColor=#000000;exitX=0.5;exitY=0;exitDx=0;exitDy=0;elbow=vertical;entryX=1;entryY=0.25;entryDx=0;entryDy=0;" parent="1" source="-JPUo0-ZmxXkv4KaRfed-38" target="75" edge="1">
                    <mxGeometry width="100" height="100" relative="1" as="geometry">
                        <mxPoint x="501" y="18" as="sourcePoint"/>
                        <mxPoint x="463" y="68" as="targetPoint"/>
                        <Array as="points">
                            <mxPoint x="491" y="83"/>
                        </Array>
                    </mxGeometry>
                </mxCell>
                <mxCell id="84" value="Managed by" style="text;html=1;align=center;verticalAlign=middle;whiteSpace=wrap;rounded=0;labelBackgroundColor=none;labelBorderColor=none;fontSize=10;" parent="1" vertex="1">
                    <mxGeometry x="562.5" y="76" width="60" height="30" as="geometry"/>
                </mxCell>
                <mxCell id="85" value="Manages" style="text;html=1;align=center;verticalAlign=middle;whiteSpace=wrap;rounded=0;labelBackgroundColor=none;labelBorderColor=none;fontSize=10;" parent="1" vertex="1">
                    <mxGeometry x="421" y="55" width="60" height="30" as="geometry"/>
                </mxCell>
                <mxCell id="91" value="Tranfers" style="text;html=1;align=center;verticalAlign=middle;whiteSpace=wrap;rounded=0;labelBackgroundColor=none;labelBorderColor=none;fontSize=10;" parent="1" vertex="1">
                    <mxGeometry x="313.5" y="577" width="71" height="30" as="geometry"/>
                </mxCell>
                <mxCell id="92" value="Is transferred" style="text;html=1;align=center;verticalAlign=middle;whiteSpace=wrap;rounded=0;labelBackgroundColor=none;labelBorderColor=none;fontSize=10;" parent="1" vertex="1">
                    <mxGeometry x="930" y="604" width="71" height="30" as="geometry"/>
                </mxCell>
                <mxCell id="93" value="" style="edgeStyle=elbowEdgeStyle;fontSize=12;html=1;endArrow=ERzeroToMany;startArrow=ERmandOne;fontColor=#FFFFFF;elbow=vertical;exitX=0.5;exitY=0;exitDx=0;exitDy=0;entryX=1;entryY=0.5;entryDx=0;entryDy=0;" parent="1" source="-JPUo0-ZmxXkv4KaRfed-36" target="6" edge="1">
                    <mxGeometry width="100" height="100" relative="1" as="geometry">
                        <mxPoint x="541" y="726" as="sourcePoint"/>
                        <mxPoint x="641" y="626" as="targetPoint"/>
                        <Array as="points">
                            <mxPoint x="401" y="633"/>
                        </Array>
                    </mxGeometry>
                </mxCell>
                <mxCell id="94" value="Tranfers to / from" style="text;html=1;align=center;verticalAlign=middle;whiteSpace=wrap;rounded=0;labelBackgroundColor=none;labelBorderColor=none;fontSize=10;" parent="1" vertex="1">
                    <mxGeometry x="323" y="629.5" width="92" height="30" as="geometry"/>
                </mxCell>
                <mxCell id="98" value="" style="fontSize=12;html=1;endArrow=ERzeroToMany;startArrow=ERmandOne;fontColor=#FFFFFF;entryX=0.25;entryY=0;entryDx=0;entryDy=0;edgeStyle=elbowEdgeStyle;elbow=vertical;exitX=0.75;exitY=1;exitDx=0;exitDy=0;" parent="1" source="-JPUo0-ZmxXkv4KaRfed-4" target="-JPUo0-ZmxXkv4KaRfed-24" edge="1">
                    <mxGeometry width="100" height="100" relative="1" as="geometry">
                        <mxPoint x="197" y="243" as="sourcePoint"/>
                        <mxPoint x="144" y="315" as="targetPoint"/>
                    </mxGeometry>
                </mxCell>
                <mxCell id="99" value="Takes place on" style="text;html=1;align=center;verticalAlign=middle;whiteSpace=wrap;rounded=0;labelBackgroundColor=none;labelBorderColor=none;fontSize=10;" parent="1" vertex="1">
                    <mxGeometry x="115" y="300" width="73" height="30" as="geometry"/>
                </mxCell>
                <mxCell id="100" value="Accomodates" style="text;html=1;align=center;verticalAlign=middle;whiteSpace=wrap;rounded=0;labelBackgroundColor=none;labelBorderColor=none;fontSize=10;" parent="1" vertex="1">
                    <mxGeometry x="169" y="224" width="72" height="30" as="geometry"/>
                </mxCell>
                <mxCell id="101" value="Sends / Receives" style="text;html=1;align=center;verticalAlign=middle;whiteSpace=wrap;rounded=0;labelBackgroundColor=none;labelBorderColor=none;fontSize=10;" parent="1" vertex="1">
                    <mxGeometry x="485" y="634" width="86" height="30" as="geometry"/>
                </mxCell>
                <mxCell id="102" value="" style="edgeStyle=elbowEdgeStyle;fontSize=12;html=1;endArrow=ERzeroToMany;startArrow=ERmandOne;fontColor=#FFFFFF;elbow=vertical;exitX=0.25;exitY=0;exitDx=0;exitDy=0;entryX=1;entryY=0.25;entryDx=0;entryDy=0;" parent="1" source="-JPUo0-ZmxXkv4KaRfed-32" target="6" edge="1">
                    <mxGeometry width="100" height="100" relative="1" as="geometry">
                        <mxPoint x="594" y="659" as="sourcePoint"/>
                        <mxPoint x="694" y="559" as="targetPoint"/>
                        <Array as="points">
                            <mxPoint x="666" y="606"/>
                        </Array>
                    </mxGeometry>
                </mxCell>
                <mxCell id="103" value="" style="edgeStyle=elbowEdgeStyle;fontSize=12;html=1;endArrow=ERzeroToMany;startArrow=ERmandOne;fontColor=#FFFFFF;elbow=vertical;exitX=0.25;exitY=0;exitDx=0;exitDy=0;entryX=0.75;entryY=0;entryDx=0;entryDy=0;" parent="1" source="-JPUo0-ZmxXkv4KaRfed-26" target="75" edge="1">
                    <mxGeometry width="100" height="100" relative="1" as="geometry">
                        <mxPoint x="692" y="38" as="sourcePoint"/>
                        <mxPoint x="792" y="-62" as="targetPoint"/>
                        <Array as="points">
                            <mxPoint x="573" y="32"/>
                        </Array>
                    </mxGeometry>
                </mxCell>
                <mxCell id="104" value="Works / Worked as" style="text;html=1;align=center;verticalAlign=middle;whiteSpace=wrap;rounded=0;labelBackgroundColor=none;labelBorderColor=none;fontSize=10;" parent="1" vertex="1">
                    <mxGeometry x="755" y="85" width="90" height="30" as="geometry"/>
                </mxCell>
                <mxCell id="105" value="Performed by" style="text;html=1;align=center;verticalAlign=middle;whiteSpace=wrap;rounded=0;labelBackgroundColor=none;labelBorderColor=none;fontSize=10;" parent="1" vertex="1">
                    <mxGeometry x="294.5" y="25" width="90" height="30" as="geometry"/>
                </mxCell>
                <mxCell id="107" value="" style="edgeStyle=elbowEdgeStyle;fontSize=12;html=1;endArrow=ERzeroToMany;endFill=1;fontColor=#FFFFFF;elbow=vertical;entryX=1;entryY=0.25;entryDx=0;entryDy=0;exitX=0.5;exitY=1;exitDx=0;exitDy=0;" parent="1" source="32" target="-JPUo0-ZmxXkv4KaRfed-58" edge="1">
                    <mxGeometry width="100" height="100" relative="1" as="geometry">
                        <mxPoint x="577" y="585" as="sourcePoint"/>
                        <mxPoint x="677" y="485" as="targetPoint"/>
                        <Array as="points">
                            <mxPoint x="621" y="509"/>
                        </Array>
                    </mxGeometry>
                </mxCell>
                <mxCell id="108" value="" style="edgeStyle=elbowEdgeStyle;fontSize=12;html=1;endArrow=ERzeroToMany;endFill=1;fontColor=#FFFFFF;elbow=vertical;exitX=0.5;exitY=1;exitDx=0;exitDy=0;entryX=0;entryY=0.5;entryDx=0;entryDy=0;" edge="1" parent="1" target="-JPUo0-ZmxXkv4KaRfed-58">
                    <mxGeometry width="100" height="100" relative="1" as="geometry">
                        <mxPoint x="349" y="472" as="sourcePoint"/>
                        <mxPoint x="376" y="546" as="targetPoint"/>
                        <Array as="points">
                            <mxPoint x="368" y="534"/>
                        </Array>
                    </mxGeometry>
                </mxCell>
            </root>
        </mxGraphModel>
    </diagram>
</mxfile>